<mxfile host="Electron" modified="2024-02-26T12:12:26.887Z" agent="Mozilla/5.0 (Windows NT 10.0; Win64; x64) AppleWebKit/537.36 (KHTML, like Gecko) draw.io/23.1.5 Chrome/120.0.6099.109 Electron/28.1.0 Safari/537.36" etag="lML-O2DH3nlww0PTRB7O" version="23.1.5" type="device">
  <diagram name="Page-1" id="hwJGP-7LeXRfqxVs9OOH">
    <mxGraphModel dx="892" dy="758" grid="1" gridSize="10" guides="1" tooltips="1" connect="1" arrows="1" fold="1" page="1" pageScale="1" pageWidth="827" pageHeight="1169" math="1" shadow="0">
      <root>
        <mxCell id="0" />
        <mxCell id="1" parent="0" />
        <mxCell id="lPpD-Ri4-I0vV7pQgyBR-4" value="" style="group" vertex="1" connectable="0" parent="1">
          <mxGeometry x="314" y="170" width="128" height="280" as="geometry" />
        </mxCell>
        <mxCell id="IZ1IGUefkEzbKXLhbxw_-10" value="&lt;font color=&quot;#000000&quot;&gt;&lt;span style=&quot;font-size: 14px;&quot;&gt;F&lt;sub&gt;A,0&lt;/sub&gt;&lt;/span&gt;&lt;/font&gt;" style="text;html=1;align=center;verticalAlign=middle;whiteSpace=wrap;rounded=0;fontFamily=IBM Plex sans;fontSize=12;fontColor=default;labelBackgroundColor=none;" parent="lPpD-Ri4-I0vV7pQgyBR-4" vertex="1">
          <mxGeometry x="32.5" width="47" height="30" as="geometry" />
        </mxCell>
        <mxCell id="f4fKIB61lHw_kfD8zgfd-15" value="" style="endArrow=blockThin;html=1;rounded=0;endFill=1;strokeWidth=2;" parent="lPpD-Ri4-I0vV7pQgyBR-4" edge="1">
          <mxGeometry width="50" height="50" relative="1" as="geometry">
            <mxPoint x="26.149999999999977" y="230" as="sourcePoint" />
            <mxPoint x="26.149999999999977" y="270" as="targetPoint" />
            <Array as="points" />
          </mxGeometry>
        </mxCell>
        <mxCell id="f4fKIB61lHw_kfD8zgfd-16" value="&lt;font color=&quot;#000000&quot;&gt;&lt;span style=&quot;font-size: 14px;&quot;&gt;F&lt;sub&gt;A&lt;/sub&gt;&lt;/span&gt;&lt;/font&gt;" style="text;html=1;align=center;verticalAlign=middle;whiteSpace=wrap;rounded=0;fontFamily=IBM Plex sans;fontSize=12;fontColor=#388ECC;labelBackgroundColor=none;" parent="lPpD-Ri4-I0vV7pQgyBR-4" vertex="1">
          <mxGeometry x="36" y="250" width="40" height="30" as="geometry" />
        </mxCell>
        <mxCell id="f4fKIB61lHw_kfD8zgfd-35" value="" style="endArrow=blockThin;html=1;rounded=0;endFill=1;" parent="lPpD-Ri4-I0vV7pQgyBR-4" edge="1">
          <mxGeometry width="50" height="50" relative="1" as="geometry">
            <mxPoint x="96" y="160" as="sourcePoint" />
            <mxPoint x="53" y="140" as="targetPoint" />
            <Array as="points">
              <mxPoint x="83" y="160" />
            </Array>
          </mxGeometry>
        </mxCell>
        <mxCell id="f4fKIB61lHw_kfD8zgfd-36" value="&lt;svg style=&quot;vertical-align: 0px;&quot; xmlns:xlink=&quot;http://www.w3.org/1999/xlink&quot; viewBox=&quot;0 -716 833 716&quot; role=&quot;img&quot; height=&quot;1.62ex&quot; width=&quot;1.885ex&quot; xmlns=&quot;http://www.w3.org/2000/svg&quot;&gt;&lt;defs&gt;&lt;path d=&quot;M51 0Q46 4 46 7Q46 9 215 357T388 709Q391 716 416 716Q439 716 444 709Q447 705 616 357T786 7Q786 4 781 0H51ZM507 344L384 596L137 92L383 91H630Q630 93 507 344Z&quot; id=&quot;MJX-2-TEX-N-394&quot;&gt;&lt;/path&gt;&lt;/defs&gt;&lt;g transform=&quot;scale(1,-1)&quot; stroke-width=&quot;0&quot; fill=&quot;currentColor&quot; stroke=&quot;currentColor&quot;&gt;&lt;g data-mml-node=&quot;math&quot;&gt;&lt;g data-mml-node=&quot;mi&quot;&gt;&lt;use xlink:href=&quot;#MJX-2-TEX-N-394&quot; data-c=&quot;394&quot;&gt;&lt;/use&gt;&lt;/g&gt;&lt;/g&gt;&lt;/g&gt;&lt;/svg&gt;V" style="text;html=1;align=left;verticalAlign=middle;whiteSpace=wrap;rounded=0;fontFamily=IBM Plex sans;" parent="lPpD-Ri4-I0vV7pQgyBR-4" vertex="1">
          <mxGeometry x="99" y="144.75" width="29" height="30" as="geometry" />
        </mxCell>
        <mxCell id="lPpD-Ri4-I0vV7pQgyBR-1" value="" style="verticalLabelPosition=bottom;outlineConnect=0;align=center;dashed=0;html=1;verticalAlign=top;shape=mxgraph.pid2misc.column;columnType=fluid;strokeWidth=2;" vertex="1" parent="lPpD-Ri4-I0vV7pQgyBR-4">
          <mxGeometry y="50" width="52.5" height="180" as="geometry" />
        </mxCell>
        <mxCell id="f4fKIB61lHw_kfD8zgfd-26" value="" style="ellipse;whiteSpace=wrap;html=1;strokeColor=#FF0000;rotation=90;fillColor=none;" parent="lPpD-Ri4-I0vV7pQgyBR-4" vertex="1">
          <mxGeometry x="23.75" y="106.25" width="5" height="52.5" as="geometry" />
        </mxCell>
        <mxCell id="f4fKIB61lHw_kfD8zgfd-30" value="" style="endArrow=none;html=1;rounded=0;exitX=0.5;exitY=1;exitDx=0;exitDy=0;entryX=0.5;entryY=1;entryDx=0;entryDy=0;strokeColor=#FF0000;" parent="lPpD-Ri4-I0vV7pQgyBR-4" source="f4fKIB61lHw_kfD8zgfd-26" target="f4fKIB61lHw_kfD8zgfd-32" edge="1">
          <mxGeometry width="50" height="50" relative="1" as="geometry">
            <mxPoint x="-11.25" y="180.25" as="sourcePoint" />
            <mxPoint x="-0.25" y="139.25" as="targetPoint" />
          </mxGeometry>
        </mxCell>
        <mxCell id="f4fKIB61lHw_kfD8zgfd-32" value="" style="ellipse;whiteSpace=wrap;html=1;rotation=90;strokeColor=#FF0000;fillColor=none;" parent="lPpD-Ri4-I0vV7pQgyBR-4" vertex="1">
          <mxGeometry x="23.75" y="121.25" width="5" height="52.5" as="geometry" />
        </mxCell>
        <mxCell id="f4fKIB61lHw_kfD8zgfd-33" value="" style="endArrow=none;html=1;rounded=0;exitX=0.5;exitY=0;exitDx=0;exitDy=0;entryX=0.5;entryY=0;entryDx=0;entryDy=0;strokeColor=#FF0000;" parent="lPpD-Ri4-I0vV7pQgyBR-4" source="f4fKIB61lHw_kfD8zgfd-26" target="f4fKIB61lHw_kfD8zgfd-32" edge="1">
          <mxGeometry width="50" height="50" relative="1" as="geometry">
            <mxPoint x="51.75" y="134.25" as="sourcePoint" />
            <mxPoint x="51.75" y="141.25" as="targetPoint" />
          </mxGeometry>
        </mxCell>
        <mxCell id="lPpD-Ri4-I0vV7pQgyBR-3" value="" style="endArrow=blockThin;html=1;rounded=0;endFill=1;strokeWidth=2;" edge="1" parent="lPpD-Ri4-I0vV7pQgyBR-4">
          <mxGeometry width="50" height="50" relative="1" as="geometry">
            <mxPoint x="26.149999999999977" y="10" as="sourcePoint" />
            <mxPoint x="26.149999999999977" y="50" as="targetPoint" />
            <Array as="points" />
          </mxGeometry>
        </mxCell>
      </root>
    </mxGraphModel>
  </diagram>
</mxfile>
